<?xml version="1.0" encoding="utf-8"?>
<!-- Generator: Adobe Illustrator 26.4.1, SVG Export Plug-In . SVG Version: 6.00 Build 0)  -->
<svg version="1.1" id="Layer_1" xmlns="http://www.w3.org/2000/svg" xmlns:xlink="http://www.w3.org/1999/xlink" x="0px" y="0px"
	 viewBox="0 0 599 98" style="enable-background:new 0 0 599 98;" xml:space="preserve">
<style type="text/css">
	.st0{fill:#F5390C;}
	.st1{fill:#8E48F8;}
	.st2{fill:#FD5E0C;}
	.st3{fill:#FB6E12;}
	.st4{fill:#FCA639;}
	.st5{fill:#F8C34F;}
	.st6{fill:#FADA77;}
	.st7{fill:#414042;}
</style>
<g>
	<g>
		<path class="st0" d="M85.1,30.1c0,2.6-0.5,5-1.4,7.3c-1.2,2.8-3,5.3-5.3,7.2c-0.3,0.3-0.7,0.6-1.1,0.8c-3.4-1.7-7.1-2.6-11.1-2.6
			c-9,0-16.9,4.7-21.3,11.8c-2.4,3.9-3.8,8.4-3.8,13.3c0,0.4,0,0.8,0,1.2c0.1,2.1,0.5,4.1,1,6.1c0.8,2.6,2,5.1,3.6,7.2
			c1.2,1.6,2.5,3.1,4,4.4H29.2c-4.1,0-7.4-3.3-7.4-7.4V18.6c0-4.1,3.3-7.4,7.4-7.4h37C76.6,11.1,85.1,19.6,85.1,30.1z"/>
		<path class="st1" d="M83.7,37.3c-1.2,2.8-3,5.3-5.3,7.2c-0.3,0.3-0.7,0.6-1.1,0.8c-3.4-1.7-7.1-2.6-11.1-2.6
			c-9,0-16.9,4.7-21.3,11.8c-2.4,3.9-3.8,8.4-3.8,13.3c0,0.4,0,0.8,0,1.2c0.1,2.1,0.5,4.1,1,6.1c-0.7,2.3-1.1,4.7-1.1,7.2
			c0,1.5,0.1,3,0.4,4.4H29.2c-4.1,0-7.4-3.3-7.4-7.4V33.1c0-4.1,3.3-7.4,7.4-7.4h37C74.1,25.6,80.8,30.5,83.7,37.3z"/>
		<path class="st2" d="M83.7,37.3c-1.2,2.8-3,5.3-5.3,7.2c-0.3,0.3-0.7,0.6-1.1,0.8c-3.4-1.7-7.1-2.6-11.1-2.6
			c-9,0-16.9,4.7-21.3,11.8c-2.4,3.9-3.8,8.4-3.8,13.3c0,0.4,0,0.8,0,1.2c0.1,2.1,0.5,4.1,1,6.1c-0.7,2.3-1.1,4.7-1.1,7.2
			c0,1.5,0.1,3,0.4,4.4H29.2c-4.1,0-7.4-3.3-7.4-7.4V33.1c0-4.1,3.3-7.4,7.4-7.4h37C74.1,25.6,80.8,30.5,83.7,37.3z"/>
		<path class="st3" d="M78.3,44.6c-0.3,0.3-0.7,0.6-1.1,0.8c-3.4-1.7-7.1-2.6-11.1-2.6c-9,0-16.9,4.7-21.3,11.8
			c-2.4,3.9-3.8,8.4-3.8,13.3c0,0.4,0,0.8,0,1.2c0.1,2.1,0.5,4.1,1,6.1c0.8,2.6,2,5.1,3.6,7.2c-1,1.4-1.8,2.9-2.5,4.4h-14
			c-4.1,0-7.4-3.3-7.4-7.4V47.6c0-4.1,3.3-7.4,7.4-7.4h37C70.8,40.1,75,41.8,78.3,44.6z"/>
		<path class="st4" d="M49.7,86.9H29.2c-4.1,0-7.4-3.3-7.4-7.4V62.1c0-4.1,3.3-7.4,7.4-7.4h15.7c-2.4,3.9-3.8,8.4-3.8,13.3
			c0,0.4,0,0.8,0,1.2c0.1,2.1,0.5,4.1,1,6.1c0.8,2.6,2,5.1,3.6,7.2C46.8,84.1,48.2,85.5,49.7,86.9z"/>
		<path class="st5" d="M49.7,86.9H29.2c-4.1,0-7.4-3.3-7.4-7.4v-2.9c0-4.1,3.3-7.4,7.4-7.4h11.9c0.1,2.1,0.5,4.1,1,6.1
			c0.8,2.6,2,5.1,3.6,7.2C46.8,84.1,48.2,85.5,49.7,86.9z"/>
		<path class="st0" d="M85.1,67.9c0,1.2-0.1,2.4-0.3,3.6c-0.2,1.3-0.6,2.5-1.1,3.6c-0.5,1.3-1.2,2.5-2,3.6c-0.9,1.4-2.1,2.6-3.3,3.6
			c-3.3,2.8-7.5,4.4-12.2,4.4c-4.6,0-8.9-1.7-12.2-4.4c-1.3-1.1-2.4-2.3-3.3-3.6c-0.8-1.1-1.5-2.3-2-3.6c-0.5-1.2-0.8-2.4-1.1-3.6
			c-0.2-1.2-0.3-2.4-0.3-3.6c0-10.5,8.5-18.9,18.9-18.9S85.1,57.5,85.1,67.9z"/>
		<path class="st2" d="M84.7,71.5c-0.2,1.3-0.6,2.5-1.1,3.6c-0.5,1.3-1.2,2.5-2,3.6c-0.9,1.4-2.1,2.6-3.3,3.6
			c-3.3,2.8-7.5,4.4-12.2,4.4c-4.6,0-8.9-1.7-12.2-4.4c-1.3-1.1-2.4-2.3-3.3-3.6c-0.8-1.1-1.5-2.3-2-3.6c-0.5-1.2-0.8-2.4-1.1-3.6
			c1.7-8.7,9.4-15.3,18.6-15.3C75.4,56.2,83.1,62.8,84.7,71.5z"/>
		<path class="st3" d="M83.7,75.2c-0.5,1.3-1.2,2.5-2,3.6c-0.9,1.4-2.1,2.6-3.3,3.6c-3.3,2.8-7.5,4.4-12.2,4.4
			c-4.6,0-8.9-1.7-12.2-4.4c-1.3-1.1-2.4-2.3-3.3-3.6c-0.8-1.1-1.5-2.3-2-3.6c2.8-6.9,9.6-11.7,17.5-11.7
			C74.1,63.5,80.8,68.3,83.7,75.2z"/>
		<path class="st4" d="M81.7,78.8c-0.9,1.4-2.1,2.6-3.3,3.6c-3.3,2.8-7.5,4.4-12.2,4.4c-4.6,0-8.9-1.7-12.2-4.4
			c-1.3-1.1-2.4-2.3-3.3-3.6c3.4-4.9,9.1-8.1,15.5-8.1C72.6,70.7,78.2,73.9,81.7,78.8z"/>
		<path class="st5" d="M78.3,82.4c-1,0.8-2.1,1.6-3.3,2.2c-2.7,1.4-5.7,2.2-8.9,2.2c-3.2,0-6.2-0.8-8.9-2.2C56.1,84,55,83.3,54,82.4
			c3.3-2.8,7.5-4.4,12.2-4.4C70.8,78,75,79.6,78.3,82.4z"/>
		<path class="st6" d="M75.1,84.6c-2.7,1.4-5.7,2.2-8.9,2.2c-3.2,0-6.2-0.8-8.9-2.2c2.7-1.4,5.7-2.2,8.9-2.2
			C69.4,82.4,72.4,83.2,75.1,84.6z"/>
	</g>
	<g>
		<g>
			<g>
				<g>
					<g>
						<path class="st7" d="M143.1,48.6c4.2,2.2,6.6,5.3,7.4,9.3c0.1,0.7,0.2,1.4,0.2,2.1c0,4-1.7,7.4-5.2,9.9
							c-3.4,2.6-7.9,3.9-13.4,3.9h-22.7V33.4c0-2.9,1.2-5.3,3.7-7c1.7-1.1,3.5-1.7,5.6-1.7H132c6,0,10.5,2,13.4,5.9
							c1.7,2.3,2.6,4.8,2.6,7.7c0,3.9-1.5,7.2-4.5,9.8C143.4,48.4,143.2,48.5,143.1,48.6z M125.2,44.8h6.8c2.9,0,4.8-1.1,5.8-3.4
							c0.3-0.8,0.5-1.6,0.5-2.4c0-2.3-1-3.9-3-5c-1-0.5-2.1-0.8-3.4-0.8h-12.8v32H132c4,0,6.8-1.1,8.3-3.4c0.5-0.8,0.7-1.7,0.7-2.5
							c0-2.1-1.1-3.7-3.4-4.8c-1.5-0.8-3.4-1.2-5.6-1.2h-12.1L125.2,44.8z"/>
					</g>
				</g>
				<g>
					<g>
						<path class="st7" d="M168.2,50.7l3.4-5.4h17.9V24.8h9.9v49.1h-9.9v-20h-21.2v20h-9.9V24.8h9.9V50.7z"/>
					</g>
				</g>
				<g>
					<g>
						<path class="st7" d="M240.2,67.3h-21.5l5.3-8.5h13.2l-8.4-24.1l-13.7,39.1h-10.6l14.4-41.1c2.1-5.7,5.4-8.6,9.9-8.7
							c4.5,0,7.7,2.9,9.8,8.7l14.5,41.1h-10.6L240.2,67.3z"/>
					</g>
				</g>
				<g>
					<g>
						<path class="st7" d="M268.4,33.3v40.5h-9.9V33.4c0-2.9,1.2-5.3,3.7-7c1.7-1.1,3.5-1.7,5.6-1.7h13.4c6,0,10.8,1.8,14.4,5.4
							c3.1,3.1,4.6,6.8,4.6,11.3v1.9c0,5.6-2.2,9.9-6.7,13c-1.7,1.2-3.5,2-5.6,2.6l13.3,14.9H289L276.7,60h-7.6l5.3-8.5h6.8
							c4,0,6.8-1.4,8.2-4.2c0.6-1.2,0.8-2.5,0.8-3.9v-1.9c0-3.9-1.7-6.4-5.2-7.6c-1.2-0.4-2.4-0.6-3.8-0.6H268.4z"/>
					</g>
				</g>
				<g>
					<g>
						<path class="st7" d="M339.7,67.3h-21.5l5.3-8.5h13.2l-8.4-24.1l-13.7,39.1h-10.6l14.4-41.1c2.1-5.7,5.4-8.6,9.9-8.7
							c4.5,0,7.7,2.9,9.8,8.7l14.5,41.1H342L339.7,67.3z"/>
					</g>
				</g>
				<g>
					<g>
						<path class="st7" d="M364.4,24.8l-5.3,8.5h-9.7v-8.5H364.4z M372.5,73.9h-9.9V33.4c0-2.9,1.2-5.2,3.7-6.9
							c1.7-1.2,3.6-1.7,5.6-1.7h14.7v8.5h-14.1V73.9z"/>
					</g>
				</g>
			</g>
		</g>
		<g>
			<g>
				<path class="st0" d="M405.7,24.8l-4.5,7.3h-8.3v-7.3H405.7z M412.5,66.6h-8.5V32.1c0-2.5,1.1-4.4,3.2-5.9c1.4-1,3-1.5,4.8-1.5
					h12.5V32h-12V66.6z"/>
				<path class="st0" d="M430.6,24.8h8.4v41.8h-8.4V24.8z"/>
				<path class="st0" d="M485.4,33.4l-9.4,27.1h-8.9l-9.4-27.1l-3.2,33.2h-9l3.9-34.8c0.4-3.1,1.8-5.3,4.4-6.5
					c1.1-0.5,2.2-0.7,3.4-0.7c2.5,0,4.5,1,5.8,2.9c0.3,0.5,0.6,1,0.8,1.5l7.8,22.9l7.8-22.9c0.8-2.3,2.5-3.7,4.9-4.2
					c0.6-0.1,1.2-0.2,1.7-0.2c2.6,0,4.7,1,6.2,3.1c0.8,1.2,1.4,2.6,1.5,4.2l3.9,34.8h-9L485.4,33.4z"/>
				<path class="st0" d="M512.1,49.5v9.8h21.6l4,7.3h-26c-2.7,0-4.8-1-6.4-3c-1-1.3-1.5-2.8-1.5-4.3V32.1c0-2.5,1.1-4.4,3.2-5.9
					c1.4-1,3-1.5,4.8-1.5h26l-4,7.3h-21.6v10.2h19.9v7.3H512.1z"/>
				<path class="st0" d="M542.3,36.7c0-3.4,1.6-6.2,4.7-8.6c3-2.2,6.7-3.4,10.9-3.4h5.6c3.4,0,6.7,0.8,9.9,2.4
					c1.3,0.7,2.4,1.4,3.2,2.2l-7.4,5.7c-1.2-1.7-2.9-2.7-5-2.9c-0.3,0-0.5-0.1-0.8-0.1H558c-2.8,0-4.8,0.8-6.2,2.3
					c-0.6,0.8-0.9,1.6-0.9,2.4c0,1.4,1.5,2.7,4.6,3.7c1,0.3,2.6,0.8,4.8,1.4c5.5,1.4,9.4,2.8,11.6,4.2c3.6,2.2,5.4,5.1,5.4,8.7
					c0,3.3-1.6,6.2-4.8,8.5c-3.2,2.3-7,3.4-11.3,3.4h-5.6c-3.6,0-7-0.8-10.3-2.4c-1.4-0.7-2.5-1.4-3.3-2.2l7.3-5.6
					c1.3,1.6,3.1,2.6,5.4,2.9c0.4,0,0.7,0.1,1,0.1h5.6c3,0,5.2-0.8,6.7-2.4c0.7-0.7,1-1.5,1-2.3c0-1.6-1.5-3-4.6-4
					c-0.4-0.2-3.1-0.9-8-2.3c-5.6-1.5-9.4-3.3-11.4-5.4C543.2,41.2,542.3,39.1,542.3,36.7z"/>
			</g>
		</g>
		<g>
			<rect x="392.8" y="70.1" class="st0" width="30.8" height="3.6"/>
			<rect x="423.7" y="70.1" class="st2" width="30.8" height="3.6"/>
			<rect x="454.1" y="70.1" class="st3" width="30.8" height="3.6"/>
			<rect x="484.9" y="70.1" class="st4" width="30.8" height="3.6"/>
			<rect x="515.8" y="70.1" class="st5" width="30.8" height="3.6"/>
			<rect x="546.4" y="70.1" class="st6" width="30.8" height="3.6"/>
		</g>
	</g>
</g>
</svg>
